<svg id="Capa_1" data-name="Capa 1" xmlns="http://www.w3.org/2000/svg" width="15" height="15" viewBox="0 0 15 15">
  <defs>
    <style>
      .cls-1 {
        fill: #232a42;
      }

      .cls-2 {
        fill: #38d430;
      }

      .cls-3 {
        fill: #fff;
      }
    </style>
  </defs>
  <title>ico_calendario</title>
  <g>
    <path class="cls-1" d="M.9,12.682a.818.818,0,0,0,.818.818H13.279a.818.818,0,0,0,.818-.818V5.914H.9Zm6.876-1.493a.49.49,0,0,1,.025-.124A.179.179,0,0,1,7.845,11a.084.084,0,0,1,.055-.019.29.29,0,0,1,.12.045,2.1,2.1,0,0,0,.212.1,2.17,2.17,0,0,0,.319.1A1.962,1.962,0,0,0,9,11.269a1.707,1.707,0,0,0,.414-.047.818.818,0,0,0,.315-.151.692.692,0,0,0,.2-.261A.911.911,0,0,0,10,10.434a.9.9,0,0,0-.059-.335.6.6,0,0,0-.184-.249A.837.837,0,0,0,9.433,9.7a1.99,1.99,0,0,0-.486-.051,3.456,3.456,0,0,0-.413.023,2.774,2.774,0,0,1-.351.024.205.205,0,0,1-.163-.057.329.329,0,0,1-.049-.21v-2.2A.342.342,0,0,1,8.031,7a.252.252,0,0,1,.2-.068h2.4a.107.107,0,0,1,.067.023.185.185,0,0,1,.053.075.54.54,0,0,1,.031.135,1.9,1.9,0,0,1,.01.2,1.034,1.034,0,0,1-.041.341c-.028.07-.068.106-.12.106h-1.8V8.9c.091-.011.182-.017.272-.02s.185,0,.284,0a2.539,2.539,0,0,1,.731.1,1.46,1.46,0,0,1,.538.283,1.2,1.2,0,0,1,.331.462,1.674,1.674,0,0,1,.114.641,1.81,1.81,0,0,1-.143.736,1.527,1.527,0,0,1-.4.545,1.83,1.83,0,0,1-.628.339,2.663,2.663,0,0,1-.814.117,3.183,3.183,0,0,1-.446-.029,3.1,3.1,0,0,1-.381-.075A2.246,2.246,0,0,1,8,11.9a.6.6,0,0,1-.141-.074.186.186,0,0,1-.049-.065.4.4,0,0,1-.026-.084,1.052,1.052,0,0,1-.014-.124c0-.049,0-.108,0-.176A1.642,1.642,0,0,1,7.779,11.189ZM3.908,7.883a.417.417,0,0,1,.02-.1.19.19,0,0,1,.044-.07.464.464,0,0,1,.074-.059l1.089-.706a.18.18,0,0,1,.05-.025A.384.384,0,0,1,5.261,6.9,1.206,1.206,0,0,1,5.385,6.9l.2,0c.1,0,.18,0,.241.006a.686.686,0,0,1,.139.02.1.1,0,0,1,.063.037.1.1,0,0,1,.016.059v4.191h.827a.106.106,0,0,1,.065.022.17.17,0,0,1,.05.068.436.436,0,0,1,.032.124,1.637,1.637,0,0,1,.01.19,1.225,1.225,0,0,1-.012.186.469.469,0,0,1-.033.122.167.167,0,0,1-.05.065A.1.1,0,0,1,6.869,12h-2.8a.1.1,0,0,1-.058-.019.157.157,0,0,1-.049-.065.429.429,0,0,1-.034-.122,1.225,1.225,0,0,1-.012-.186,1.637,1.637,0,0,1,.01-.19.436.436,0,0,1,.032-.124.168.168,0,0,1,.049-.068.094.094,0,0,1,.062-.022h.945v-3.3L4.2,8.356a.653.653,0,0,1-.147.053.1.1,0,0,1-.09-.024.206.206,0,0,1-.046-.115,1.751,1.751,0,0,1-.011-.232C3.905,7.975,3.906,7.924,3.908,7.883Z"/>
    <rect class="cls-2" x="0.903" y="5.134" width="13.194" height="0.485"/>
    <path class="cls-2" d="M2.259,2.8H1.721A.818.818,0,0,0,.9,3.622v.951H14.1V3.622a.818.818,0,0,0-.818-.818H11.891V3.876a.362.362,0,0,1-.362.362h-.763a.362.362,0,0,1-.362-.362V2.8H4.6V3.876a.362.362,0,0,1-.362.362H3.471a.362.362,0,0,1-.362-.362V2.8Z"/>
    <rect class="cls-2" x="0.903" y="4.573" width="13.194" height="0.56"/>
    <rect class="cls-1" x="3.471" y="1.862" width="0.763" height="2.014"/>
    <path class="cls-3" d="M3.471,1.5a.362.362,0,0,0-.362.362V3.876a.362.362,0,0,0,.362.362h.763A.362.362,0,0,0,4.6,3.876V1.862A.362.362,0,0,0,4.234,1.5Zm.763,2.376H3.471V1.862h.763Z"/>
    <rect class="cls-1" x="10.766" y="1.862" width="0.763" height="2.014"/>
    <path class="cls-3" d="M10.766,1.5a.362.362,0,0,0-.362.362V3.876a.362.362,0,0,0,.362.362h.763a.362.362,0,0,0,.362-.362V1.862a.362.362,0,0,0-.362-.362Zm.763,2.376h-.763V1.862h.763Z"/>
    <path class="cls-3" d="M4.069,11.206a.094.094,0,0,0-.062.022.168.168,0,0,0-.049.068.436.436,0,0,0-.032.124,1.637,1.637,0,0,0-.01.19,1.225,1.225,0,0,0,.012.186.429.429,0,0,0,.034.122.157.157,0,0,0,.049.065A.1.1,0,0,0,4.069,12h2.8a.1.1,0,0,0,.062-.019.167.167,0,0,0,.05-.065.469.469,0,0,0,.033-.122,1.225,1.225,0,0,0,.012-.186,1.637,1.637,0,0,0-.01-.19.436.436,0,0,0-.032-.124.17.17,0,0,0-.05-.068.106.106,0,0,0-.065-.022H6.042V7.015a.1.1,0,0,0-.016-.059.1.1,0,0,0-.063-.037.686.686,0,0,0-.139-.02c-.061,0-.142-.006-.241-.006l-.2,0a1.206,1.206,0,0,0-.124.008.384.384,0,0,0-.076.016.18.18,0,0,0-.05.025L4.046,7.65a.464.464,0,0,0-.074.059.19.19,0,0,0-.044.07.417.417,0,0,0-.02.1c0,.041,0,.092,0,.155a1.751,1.751,0,0,0,.011.232.206.206,0,0,0,.046.115.1.1,0,0,0,.09.024A.653.653,0,0,0,4.2,8.356l.815-.451v3.3Z"/>
    <path class="cls-3" d="M9.731,11.071a.818.818,0,0,1-.315.151A1.707,1.707,0,0,1,9,11.269a1.962,1.962,0,0,1-.451-.045,2.17,2.17,0,0,1-.319-.1,2.1,2.1,0,0,1-.212-.1.29.29,0,0,0-.12-.045A.084.084,0,0,0,7.845,11a.179.179,0,0,0-.041.067.49.49,0,0,0-.025.124,1.642,1.642,0,0,0-.008.186c0,.068,0,.127,0,.176a1.052,1.052,0,0,0,.014.124.4.4,0,0,0,.026.084.186.186,0,0,0,.049.065A.6.6,0,0,0,8,11.9a2.246,2.246,0,0,0,.276.09,3.1,3.1,0,0,0,.381.075,3.183,3.183,0,0,0,.446.029,2.663,2.663,0,0,0,.814-.117,1.83,1.83,0,0,0,.628-.339,1.527,1.527,0,0,0,.4-.545,1.81,1.81,0,0,0,.143-.736,1.674,1.674,0,0,0-.114-.641,1.2,1.2,0,0,0-.331-.462,1.46,1.46,0,0,0-.538-.283,2.539,2.539,0,0,0-.731-.1c-.1,0-.194,0-.284,0s-.181.009-.272.02V7.811h1.8c.052,0,.092-.036.12-.106a1.034,1.034,0,0,0,.041-.341,1.9,1.9,0,0,0-.01-.2.54.54,0,0,0-.031-.135.185.185,0,0,0-.053-.075.107.107,0,0,0-.067-.023h-2.4a.252.252,0,0,0-.2.068.342.342,0,0,0-.06.226v2.2a.329.329,0,0,0,.049.21.205.205,0,0,0,.163.057,2.774,2.774,0,0,0,.351-.024,3.456,3.456,0,0,1,.413-.023,1.99,1.99,0,0,1,.486.051.837.837,0,0,1,.326.153.6.6,0,0,1,.184.249.9.9,0,0,1,.059.335.911.911,0,0,1-.071.376A.692.692,0,0,1,9.731,11.071Z"/>
  </g>
</svg>
