<svg id="Capa_1" data-name="Capa 1" xmlns="http://www.w3.org/2000/svg" width="15" height="15" viewBox="0 0 15 15">
  <defs>
    <style>
      .cls-1 {
        fill: #38d430;
      }

      .cls-2 {
        fill: #232a42;
      }
    </style>
  </defs>
  <title>ico_inicio</title>
  <g>
    <path class="cls-1" d="M10.7,12.562a.226.226,0,0,0,.226-.226V7.3L7.5,3.876,4.074,7.3v5.035a.227.227,0,0,0,.227.226H5.75V9.223A.161.161,0,0,1,5.8,9.112a.158.158,0,0,1,.111-.045H9.094a.155.155,0,0,1,.156.156v3.339Z"/>
    <path class="cls-2" d="M3.321,8.055v4.281a.979.979,0,0,0,.98.979h6.4a.979.979,0,0,0,.979-.979V8.055L10.926,7.3v5.035a.226.226,0,0,1-.226.226H9.25v.492a.155.155,0,0,1-.046.111.153.153,0,0,1-.11.046H5.907a.157.157,0,0,1-.157-.157v-.492H4.3a.227.227,0,0,1-.227-.226V7.3Z"/>
    <path class="cls-2" d="M1.739,8.491l.573.573L3.321,8.055,4.074,7.3,7.5,3.876,10.926,7.3l.753.754,1.009,1.009.573-.573a1.045,1.045,0,0,0,0-1.478L8.811,2.564l0,0L8.24,1.99a1.05,1.05,0,0,0-1.48,0l-.573.572,0,0L1.739,7.013A1.045,1.045,0,0,0,1.739,8.491Z"/>
    <path class="cls-2" d="M5.907,9.067a.158.158,0,0,0-.111.045.161.161,0,0,0-.046.111v3.831a.157.157,0,0,0,.157.157H9.094a.153.153,0,0,0,.11-.046.155.155,0,0,0,.046-.111V9.223a.155.155,0,0,0-.156-.156Z"/>
  </g>
</svg>
