<svg xmlns="http://www.w3.org/2000/svg" xmlns:xlink="http://www.w3.org/1999/xlink" width="165" height="50" viewBox="0 0 165 50">
  <defs>
    <style>
      .cls-1 {
        isolation: isolate;
      }

      .cls-2 {
        fill: #fff;
      }

      .cls-3 {
        fill: #38d430;
      }

      .cls-4, .cls-5 {
        mix-blend-mode: multiply;
      }

      .cls-4 {
        fill: url(#Degradado_sin_nombre_8);
      }

      .cls-5 {
        fill: url(#Degradado_sin_nombre_8-2);
      }
    </style>
    <radialGradient id="Degradado_sin_nombre_8" data-name="Degradado sin nombre 8" cx="150.176" cy="30.227" r="20.626" gradientTransform="translate(0 -12.545) scale(1 1.415)" gradientUnits="userSpaceOnUse">
      <stop offset="0.31" stop-color="#fff"/>
      <stop offset="0.378" stop-color="#eff5f2"/>
      <stop offset="0.511" stop-color="#c4dcd0"/>
      <stop offset="0.697" stop-color="#7eb39a"/>
      <stop offset="0.926" stop-color="#207b50"/>
      <stop offset="1" stop-color="#006837"/>
    </radialGradient>
    <radialGradient id="Degradado_sin_nombre_8-2" cx="158.649" cy="25.276" r="24.023" gradientTransform="translate(0 -10.49) scale(1 1.415)" xlink:href="#Degradado_sin_nombre_8"/>
  </defs>
  <title>logo_plataforma</title>
  <g class="cls-1">
    <g id="Capa_1" data-name="Capa 1">
      <g>
        <g>
          <path class="cls-2" d="M28.8,40.837H16.842L19.62,27.693a27.28,27.28,0,0,0,.72-4.6H31.89l.411.514-.746,3.087-6.92-.258-.874,4.142,5.71-.129-.823,3.267-5.5-.18L22.3,37.493l7.254-.257Z"/>
          <path class="cls-2" d="M37.393,40.837H31.271l2.778-13.144a25.628,25.628,0,0,0,.72-4.6h6.894c4.656,0,7.2,2.134,7.2,6.765C48.865,35.59,44.929,40.837,37.393,40.837Zm1.672-14.405L36.75,37.493H38.5c3.909,0,5.4-3.961,5.4-7.125,0-3.936-2.341-3.936-3.422-3.936Z"/>
          <path class="cls-2" d="M53.262,23.089l4.553-.258.411.515c-2.238,10.52-2.443,11.189-2.443,11.987a1.918,1.918,0,0,0,2.161,2.186c1.774,0,2.906-1.132,3.369-3.267,2.006-9.311,2.032-9.7,2.11-11.163l4.81-.206-2.5,11.781c-.9,4.244-4.707,6.431-8.745,6.431-3.6,0-6.1-1.724-6.1-4.63C50.9,33.918,52.8,28.1,53.262,23.089Z"/>
          <path class="cls-2" d="M80.706,40.066A12.337,12.337,0,0,1,75.69,41.1c-4.5,0-6.945-2.29-6.945-6.766,0-6.044,4.424-11.5,10.418-11.5a8.846,8.846,0,0,1,4.373,1.029l-1.749,3.987a6.2,6.2,0,0,0-3.4-1.157c-2.984,0-4.63,3.652-4.63,6.713,0,2.547,1.132,3.833,3.344,3.833a9.526,9.526,0,0,0,3.884-.977Z"/>
          <path class="cls-2" d="M81.836,40.837,89.27,25.918a29.7,29.7,0,0,0,1.286-2.829l5.814-.232.643.643L98.3,40.837H93.54l-.205-3.344H87.958l-1.62,3.344Zm7.717-6.688h3.6l-.078-1.131c-.154-2.907-.154-4.965-.1-6.123h-.128c-.463,1.132-1.544,3.627-2.727,6.1Z"/>
          <path class="cls-2" d="M103.184,40.837l3.01-14.25c-1.621.051-3.267.128-4.913.206l1.029-3.7h14.019l-.515,3.7c-1.62-.078-3.241-.155-4.861-.206l-3.01,14.25Z"/>
          <path class="cls-2" d="M115.3,40.837,118.049,27.9a40.407,40.407,0,0,0,.746-4.81l4.553-.258.412.515-3.7,17.491Z"/>
          <path class="cls-2" d="M126.26,23.32l5.2-.489.54,8.54a42.267,42.267,0,0,1,.052,5.042c.437-1.08,1.106-2.572,1.723-3.807l5.737-11.456,3.756.258.154.488L133.36,40.837h-5.274Z"/>
          <g>
            <path class="cls-2" d="M21.555,18.3l1.636-7.7a16.5,16.5,0,0,0,.362-2.23H26c1.825,0,2.882.884,2.882,2.389,0,2.317-1.969,3.881-4.445,3.881H23.423L22.641,18.3ZM24.6,9.173l-1,4.648H24.61a2.892,2.892,0,0,0,3.128-2.954c0-1.028-.608-1.694-2.071-1.694Z"/>
            <path class="cls-2" d="M29.464,18.3,31.1,10.607a17.077,17.077,0,0,0,.362-2.245l1.115-.145.1.116L30.55,18.3Zm5.3,0H30.55l.189-.825,4.214-.087Z"/>
            <path class="cls-2" d="M35.4,18.3,40.2,9.767c.3-.536.594-1.086.8-1.492l1.071-.058.13.145L43.557,18.3H42.442l-.406-2.911H38.083L36.447,18.3Zm3.157-3.736H41.92l-.3-2.143A27.674,27.674,0,0,1,41.37,9.39h-.029c-.405.883-1,1.97-1.578,3.027Z"/>
            <path class="cls-2" d="M46.644,18.3,48.584,9.2c-1,.015-2.027.044-3.055.087l.261-.927H52.8l-.13.927q-1.5-.064-3-.087L47.73,18.3Z"/>
            <path class="cls-2" d="M50.817,18.3,55.61,9.767c.3-.536.594-1.086.8-1.492l1.071-.058.13.145L58.97,18.3H57.855l-.406-2.911H53.5L51.86,18.3Zm3.157-3.736h3.359l-.3-2.143a27.674,27.674,0,0,1-.246-3.027h-.029c-.405.883-1,1.97-1.578,3.027Z"/>
            <path class="cls-2" d="M61.073,18.3l1.636-7.7a15.169,15.169,0,0,0,.362-2.23h5.257l.087.116-.174.782L64.1,9.188l-.84,3.967,3.533-.043-.217.868L63.1,13.923,62.159,18.3Z"/>
            <path class="cls-2" d="M71.588,18.441c-1.824,0-2.968-1.231-2.968-3.563,0-3.214,2.172-6.661,5.126-6.661,1.824,0,2.954,1.289,2.954,3.635C76.7,15.038,74.6,18.441,71.588,18.441Zm.217-.883c2.332,0,3.751-3.085,3.751-5.677,0-1.723-.637-2.795-1.984-2.795-2.317,0-3.808,3.143-3.808,5.706C69.764,16.515,70.444,17.558,71.805,17.558Z"/>
            <path class="cls-2" d="M78.152,18.3l1.636-7.7a15.037,15.037,0,0,0,.362-2.23H82.5c1.911,0,3,.884,3,2.346a3.493,3.493,0,0,1-2.737,3.345l1.8,4.243-1.187.145c-.551-1.347-1.1-2.723-1.636-4.1H80.078l-.84,3.953Zm3.041-9.123-.942,4.373H81.28c1.853,0,3.055-1.057,3.055-2.693,0-.985-.579-1.68-2.071-1.68Z"/>
            <path class="cls-2" d="M97.313,8.333,96.43,18.3H95.358l.333-3.823c.159-1.868.3-3.287.507-4.793h-.015c-.753,1.607-1.607,3.186-2.461,4.793L91.666,18.3H90.449l-.42-3.823c-.246-2.1-.376-3.345-.449-4.793h-.014c-.478,1.651-1.028,3.244-1.535,4.793l-1.3,3.823h-.942L89.146,8.29l1.26-.073.68,5.344c.1,1,.217,2.476.217,3.765h.03c.752-1.7,1.3-2.752,1.838-3.765l2.9-5.271,1.13-.073Z"/>
            <path class="cls-2" d="M97.636,18.3l4.793-8.529c.3-.536.594-1.086.8-1.492l1.071-.058.13.145,1.362,9.934h-1.115l-.406-2.911h-3.953L98.679,18.3Zm3.157-3.736h3.359l-.3-2.143A27.674,27.674,0,0,1,103.6,9.39h-.029c-.406.883-1,1.97-1.578,3.027Z"/>
          </g>
        </g>
        <g>
          <path class="cls-3" d="M149.4,20.382l1.538.2.444.5,6.271,23.464-.865-.251s-6.8-6.292-8.266-8.19c-2.712,2.568-9.7,6.748-9.7,6.748l-.832.026Z"/>
          <path class="cls-3" d="M150.965,16.561,150,16.6l.279-5.176,2.328-.088Z"/>
          <path class="cls-3" d="M146.68,16.607l-.479.735-3.71-2.856,1.161-1.781Z"/>
          <path class="cls-3" d="M155.115,18.158l-.761-.577,3.481-3.872,1.847,1.4Z"/>
          <path class="cls-3" d="M156.5,22.272l.164-.949,5.014,1.251-.4,2.3Z"/>
          <path class="cls-4" d="M149.4,20.382l1.538.2.444.5,6.271,23.464-.865-.251s-6.8-6.292-8.266-8.19c-2.712,2.568-9.7,6.748-9.7,6.748l-.832.026Z"/>
          <path class="cls-5" d="M149.4,20.382l1.538.2.444.5,6.271,23.464-.865-.251s-6.8-6.292-8.266-8.19C148.849,31.816,149.4,20.382,149.4,20.382Z"/>
        </g>
        <path class="cls-3" d="M10.887,3.67,2.422,45.993A229.316,229.316,0,0,0,10.887,3.67Z"/>
      </g>
    </g>
  </g>
</svg>
